# xmcd
# 
# Track frame offsets:
#     225
#     20909
#     36395
#     56460
#     71253
#     89435
#     104731
#     118632
#     133400
# 
# Disc length: 2026
# 
# Revision: 0
# Processed by: cddbd v1.5.2PL0 Copyright (c) Steve Scherf et al.
# Submitted via: BonkEnc v1.0.6
# 
DISCID=8707e709
DTITLE=Shelf Life - Stays Crunchy in Milk
DYEAR=1998
DGENRE=Blues
TTITLE0=Better Than You
TTITLE1=Money Talks
TTITLE2=My New Low
TTITLE3=Someone's Gottta
TTITLE4=Referendum 3
TTITLE5=Nickles and Dimes
TTITLE6=Things You Do
TTITLE7=Tell the Truth
TTITLE8=Lap it Up
EXTD=
EXTT0=
EXTT1=
EXTT2=
EXTT3=
EXTT4=
EXTT5=
EXTT6=
EXTT7=
EXTT8=
PLAYORDER=
